<svg xmlns="http://www.w3.org/2000/svg" width="940" height="280" viewBox="0 0 940 280" role="img" aria-labelledby="title desc">
  <title id="title">شعار طفلي ماركت</title>
  <desc id="desc">شعار أفقي لمنصة طفلي ماركت</desc>
  <defs>
    <linearGradient id="bg" x1="692" y1="42" x2="892" y2="240" gradientUnits="userSpaceOnUse">
      <stop offset="0" stop-color="#A855F7"/>
      <stop offset="0.52" stop-color="#38BDF8"/>
      <stop offset="1" stop-color="#14B8A6"/>
    </linearGradient>
    <linearGradient id="heart" x1="552" y1="54" x2="654" y2="154" gradientUnits="userSpaceOnUse">
      <stop offset="0" stop-color="#A855F7"/>
      <stop offset="1" stop-color="#38BDF8"/>
    </linearGradient>
    <filter id="shadow" x="-18%" y="-18%" width="136%" height="150%" color-interpolation-filters="sRGB">
      <feDropShadow dx="0" dy="18" stdDeviation="20" flood-color="#1F2937" flood-opacity="0.14"/>
    </filter>
  </defs>
  <g filter="url(#shadow)">
    <rect x="696" y="42" width="196" height="196" rx="58" fill="url(#bg)"/>
    <path d="M724 82c32-28 85-34 124-11 29 17 42 46 33 80-12 43-61 82-113 78-47-3-77-38-77-80 0-26 10-48 33-67Z" fill="#fff" opacity="0.16"/>
    <path d="M862 83c7-8 22-4 22 9 0 14-16 22-22 28-6-6-22-14-22-28 0-13 15-17 22-9Z" fill="#fff" opacity="0.9"/>
    <circle cx="794" cy="146" r="66" fill="#FFFFFF"/>
    <g transform="rotate(-18 783 144)">
      <ellipse cx="783" cy="157" rx="22" ry="38" fill="#A855F7"/>
      <circle cx="767" cy="111" r="7" fill="#A855F7"/>
      <circle cx="780" cy="106" r="7" fill="#A855F7"/>
      <circle cx="794" cy="108" r="6" fill="#8B5CF6"/>
      <circle cx="806" cy="116" r="6" fill="#38BDF8"/>
    </g>
    <path d="M824 179c11-13 32-6 32 12 0 21-23 31-32 39-9-8-32-18-32-39 0-18 21-25 32-12Z" fill="#E6FFFB" stroke="#14B8A6" stroke-width="6" stroke-linejoin="round"/>
  </g>
  <g direction="rtl" unicode-bidi="plaintext">
    <text x="390" y="118" text-anchor="middle" font-family="Cairo, 'Segoe UI', Tahoma, Arial, sans-serif" font-size="84" font-weight="900" letter-spacing="0" fill="#A855F7">طفلي</text>
    <text x="390" y="178" text-anchor="middle" font-family="Cairo, 'Segoe UI', Tahoma, Arial, sans-serif" font-size="54" font-weight="900" letter-spacing="0" fill="#14B8A6">ماركت</text>
    <text x="390" y="220" text-anchor="middle" font-family="Cairo, 'Segoe UI', Tahoma, Arial, sans-serif" font-size="27" font-weight="800" letter-spacing="0" fill="#667085">سوق منتجات الأطفال في ليبيا</text>
  </g>
  <path d="M594 62c17-20 50-9 50 18 0 31-35 46-50 59-14-13-50-28-50-59 0-27 33-38 50-18Z" fill="url(#heart)" opacity="0.16"/>
</svg>
