<svg xmlns="http://www.w3.org/2000/svg" width="940" height="280" viewBox="0 0 940 280" role="img" aria-labelledby="title desc">
  <title id="title">شعار طفلي ماركت الأبيض</title>
  <desc id="desc">نسخة بيضاء من شعار طفلي ماركت للخلفيات الداكنة</desc>
  <defs>
    <linearGradient id="whiteMark" x1="684" y1="38" x2="890" y2="244" gradientUnits="userSpaceOnUse">
      <stop offset="0" stop-color="#A855F7"/>
      <stop offset="0.52" stop-color="#38BDF8"/>
      <stop offset="1" stop-color="#14B8A6"/>
    </linearGradient>
  </defs>
  <rect x="694" y="42" width="196" height="196" rx="58" fill="url(#whiteMark)"/>
  <path d="M739 120c3-14 12-22 27-22h52c15 0 24 8 27 22l13 77c3 19-9 33-28 33h-76c-19 0-31-14-28-33l13-77Z" fill="#fff"/>
  <path d="M765 109c0-22 12-37 27-37s27 15 27 37" fill="none" stroke="#F3E8FF" stroke-width="10" stroke-linecap="round"/>
  <path d="M762 137c18 13 43 14 61 0" fill="none" stroke="#14B8A6" stroke-width="8" stroke-linecap="round"/>
  <circle cx="773" cy="157" r="6" fill="#A855F7"/>
  <circle cx="812" cy="157" r="6" fill="#38BDF8"/>
  <path d="M793 181c9-11 27-5 27 10 0 17-20 26-27 33-7-7-27-16-27-33 0-15 18-21 27-10Z" fill="#E6FFFB" stroke="#14B8A6" stroke-width="5" stroke-linejoin="round"/>
  <g direction="rtl" unicode-bidi="plaintext">
    <text x="390" y="118" text-anchor="middle" font-family="Cairo, 'Segoe UI', Tahoma, Arial, sans-serif" font-size="84" font-weight="900" fill="#FFFFFF">طفلي</text>
    <text x="390" y="178" text-anchor="middle" font-family="Cairo, 'Segoe UI', Tahoma, Arial, sans-serif" font-size="54" font-weight="900" fill="#99F6E4">ماركت</text>
    <text x="390" y="220" text-anchor="middle" font-family="Cairo, 'Segoe UI', Tahoma, Arial, sans-serif" font-size="27" font-weight="800" fill="#D1D5DB">سوق منتجات الأطفال في ليبيا</text>
  </g>
</svg>
