<svg xmlns="http://www.w3.org/2000/svg" width="940" height="280" viewBox="0 0 940 280" role="img" aria-labelledby="title desc">
  <title id="title">شعار طفلي ماركت</title>
  <desc id="desc">شعار أفقي احترافي لمنصة طفلي ماركت</desc>
  <defs>
    <linearGradient id="brandBg" x1="694" y1="43" x2="892" y2="239" gradientUnits="userSpaceOnUse">
      <stop offset="0" stop-color="#A855F7"/>
      <stop offset="0.52" stop-color="#38BDF8"/>
      <stop offset="1" stop-color="#14B8A6"/>
    </linearGradient>
    <filter id="shadow" x="-18%" y="-18%" width="136%" height="150%" color-interpolation-filters="sRGB">
      <feDropShadow dx="0" dy="18" stdDeviation="20" flood-color="#1F2937" flood-opacity="0.14"/>
    </filter>
  </defs>
  <g filter="url(#shadow)">
    <rect x="696" y="42" width="196" height="196" rx="58" fill="url(#brandBg)"/>
    <path d="M724 83c32-28 84-34 123-11 29 17 42 46 33 80-12 43-61 82-113 78-47-3-77-38-77-80 0-26 10-48 34-67Z" fill="#FFFFFF" opacity="0.16"/>
    <circle cx="794" cy="140" r="72" fill="#FFFFFF" opacity="0.14"/>
    <text x="794" y="164" text-anchor="middle" direction="rtl" unicode-bidi="plaintext" font-family="Cairo, 'Segoe UI', Tahoma, Arial, sans-serif" font-size="84" font-weight="900" fill="#FFFFFF">طم</text>
    <circle cx="747" cy="95" r="7" fill="#FFFFFF" opacity="0.88"/>
    <circle cx="766" cy="86" r="5" fill="#E6FFFB" opacity="0.92"/>
    <circle cx="784" cy="91" r="4" fill="#FFFFFF" opacity="0.72"/>
  </g>
  <g direction="rtl" unicode-bidi="plaintext">
    <text x="390" y="118" text-anchor="middle" font-family="Cairo, 'Segoe UI', Tahoma, Arial, sans-serif" font-size="84" font-weight="900" letter-spacing="0" fill="#A855F7">طفلي</text>
    <text x="390" y="178" text-anchor="middle" font-family="Cairo, 'Segoe UI', Tahoma, Arial, sans-serif" font-size="54" font-weight="900" letter-spacing="0" fill="#14B8A6">ماركت</text>
    <text x="390" y="220" text-anchor="middle" font-family="Cairo, 'Segoe UI', Tahoma, Arial, sans-serif" font-size="27" font-weight="800" letter-spacing="0" fill="#667085">سوق منتجات الأطفال في ليبيا</text>
  </g>
</svg>
