<svg xmlns="http://www.w3.org/2000/svg" width="720" height="820" viewBox="0 0 720 820" role="img" aria-labelledby="title desc">
  <title id="title">شعار طفلي ماركت العمودي</title>
  <desc id="desc">نسخة عمودية من شعار طفلي ماركت مناسبة للسوشيال والتغليف</desc>
  <defs>
    <linearGradient id="stackBg" x1="192" y1="82" x2="530" y2="424" gradientUnits="userSpaceOnUse">
      <stop offset="0" stop-color="#A855F7"/>
      <stop offset="0.55" stop-color="#38BDF8"/>
      <stop offset="1" stop-color="#14B8A6"/>
    </linearGradient>
    <filter id="stackShadow" x="-20%" y="-20%" width="140%" height="150%" color-interpolation-filters="sRGB">
      <feDropShadow dx="0" dy="24" stdDeviation="30" flood-color="#1F2937" flood-opacity="0.16"/>
    </filter>
  </defs>
  <rect width="720" height="820" fill="#FFFFFF"/>
  <g filter="url(#stackShadow)">
    <rect x="198" y="76" width="324" height="324" rx="94" fill="url(#stackBg)"/>
    <path d="M246 137c49-38 129-46 188-11 43 25 62 68 48 117-17 62-89 119-166 114-71-4-116-57-117-118 0-38 13-70 47-102Z" fill="#fff" opacity="0.15"/>
    <path d="M255 202c5-25 20-39 47-39h116c27 0 42 14 47 39l25 145c5 32-16 56-49 56H279c-33 0-54-24-49-56l25-145Z" fill="#fff"/>
    <path d="M309 179c0-45 24-76 51-76s51 31 51 76" fill="none" stroke="#F3E8FF" stroke-width="21" stroke-linecap="round"/>
    <path d="M304 230c34 25 80 26 112 0" fill="none" stroke="#14B8A6" stroke-width="15" stroke-linecap="round"/>
    <circle cx="322" cy="269" r="12" fill="#A855F7"/>
    <circle cx="397" cy="269" r="12" fill="#38BDF8"/>
    <path d="M360 310c17-20 50-10 50 18 0 31-36 47-50 60-14-13-50-29-50-60 0-28 33-38 50-18Z" fill="#E6FFFB" stroke="#14B8A6" stroke-width="8" stroke-linejoin="round"/>
  </g>
  <g direction="rtl" unicode-bidi="plaintext">
    <text x="360" y="558" text-anchor="middle" font-family="Cairo, 'Segoe UI', Tahoma, Arial, sans-serif" font-size="112" font-weight="900" fill="#A855F7">طفلي</text>
    <text x="360" y="638" text-anchor="middle" font-family="Cairo, 'Segoe UI', Tahoma, Arial, sans-serif" font-size="74" font-weight="900" fill="#14B8A6">ماركت</text>
    <text x="360" y="708" text-anchor="middle" font-family="Cairo, 'Segoe UI', Tahoma, Arial, sans-serif" font-size="31" font-weight="800" fill="#667085">سوق منتجات الأطفال في ليبيا</text>
  </g>
</svg>
