<svg xmlns="http://www.w3.org/2000/svg" width="720" height="820" viewBox="0 0 720 820" role="img" aria-labelledby="title desc">
  <title id="title">شعار طفلي ماركت العمودي</title>
  <desc id="desc">نسخة عمودية ناعمة من شعار طفلي ماركت مناسبة للسوشيال والتغليف</desc>
  <defs>
    <linearGradient id="bg" x1="198" y1="76" x2="522" y2="400" gradientUnits="userSpaceOnUse">
      <stop offset="0" stop-color="#A855F7"/>
      <stop offset="0.52" stop-color="#38BDF8"/>
      <stop offset="1" stop-color="#14B8A6"/>
    </linearGradient>
    <filter id="shadow" x="-20%" y="-20%" width="140%" height="150%" color-interpolation-filters="sRGB">
      <feDropShadow dx="0" dy="24" stdDeviation="30" flood-color="#1F2937" flood-opacity="0.14"/>
    </filter>
  </defs>
  <rect width="720" height="820" fill="#FFFFFF"/>
  <g filter="url(#shadow)">
    <rect x="198" y="76" width="324" height="324" rx="94" fill="url(#bg)"/>
    <path d="M247 137c49-40 130-48 190-12 44 26 62 70 48 120-18 64-91 122-169 117-72-4-117-58-117-121 0-39 14-72 48-104Z" fill="#fff" opacity="0.16"/>
    <path d="M470 126c11-13 34-6 34 13 0 21-25 32-34 41-9-9-34-20-34-41 0-19 23-26 34-13Z" fill="#fff" opacity="0.9"/>
    <circle cx="360" cy="238" r="108" fill="#FFFFFF"/>
    <g transform="rotate(-18 344 229)">
      <ellipse cx="344" cy="251" rx="36" ry="64" fill="#A855F7"/>
      <circle cx="317" cy="176" r="12" fill="#A855F7"/>
      <circle cx="338" cy="167" r="11" fill="#A855F7"/>
      <circle cx="360" cy="170" r="10" fill="#8B5CF6"/>
      <circle cx="379" cy="184" r="10" fill="#38BDF8"/>
    </g>
    <path d="M414 286c17-20 49-10 49 18 0 32-36 48-49 61-14-13-49-29-49-61 0-28 32-38 49-18Z" fill="#E6FFFB" stroke="#14B8A6" stroke-width="9" stroke-linejoin="round"/>
  </g>
  <g direction="rtl" unicode-bidi="plaintext">
    <text x="360" y="558" text-anchor="middle" font-family="Cairo, 'Segoe UI', Tahoma, Arial, sans-serif" font-size="112" font-weight="900" fill="#A855F7">طفلي</text>
    <text x="360" y="638" text-anchor="middle" font-family="Cairo, 'Segoe UI', Tahoma, Arial, sans-serif" font-size="74" font-weight="900" fill="#14B8A6">ماركت</text>
    <text x="360" y="708" text-anchor="middle" font-family="Cairo, 'Segoe UI', Tahoma, Arial, sans-serif" font-size="31" font-weight="800" fill="#667085">سوق منتجات الأطفال في ليبيا</text>
  </g>
</svg>
