<svg xmlns="http://www.w3.org/2000/svg" width="720" height="820" viewBox="0 0 720 820" role="img" aria-labelledby="title desc">
  <title id="title">شعار طفلي ماركت العمودي</title>
  <desc id="desc">نسخة عمودية احترافية من شعار طفلي ماركت للسوشيال والتغليف</desc>
  <defs>
    <linearGradient id="brandBg" x1="198" y1="76" x2="522" y2="400" gradientUnits="userSpaceOnUse">
      <stop offset="0" stop-color="#A855F7"/>
      <stop offset="0.52" stop-color="#38BDF8"/>
      <stop offset="1" stop-color="#14B8A6"/>
    </linearGradient>
    <filter id="shadow" x="-20%" y="-20%" width="140%" height="150%" color-interpolation-filters="sRGB">
      <feDropShadow dx="0" dy="24" stdDeviation="30" flood-color="#1F2937" flood-opacity="0.14"/>
    </filter>
  </defs>
  <rect width="720" height="820" fill="#FFFFFF"/>
  <g filter="url(#shadow)">
    <rect x="198" y="76" width="324" height="324" rx="94" fill="url(#brandBg)"/>
    <path d="M247 137c49-40 130-48 190-12 44 26 62 70 48 120-18 64-91 122-169 117-72-4-117-58-117-121 0-39 14-72 48-104Z" fill="#FFFFFF" opacity="0.16"/>
    <circle cx="360" cy="238" r="120" fill="#FFFFFF" opacity="0.14"/>
    <text x="360" y="278" text-anchor="middle" direction="rtl" unicode-bidi="plaintext" font-family="Cairo, 'Segoe UI', Tahoma, Arial, sans-serif" font-size="140" font-weight="900" fill="#FFFFFF">طم</text>
    <circle cx="281" cy="164" r="12" fill="#FFFFFF" opacity="0.88"/>
    <circle cx="314" cy="148" r="9" fill="#E6FFFB" opacity="0.92"/>
    <circle cx="343" cy="157" r="7" fill="#FFFFFF" opacity="0.72"/>
  </g>
  <g direction="rtl" unicode-bidi="plaintext">
    <text x="360" y="558" text-anchor="middle" font-family="Cairo, 'Segoe UI', Tahoma, Arial, sans-serif" font-size="112" font-weight="900" fill="#A855F7">طفلي</text>
    <text x="360" y="638" text-anchor="middle" font-family="Cairo, 'Segoe UI', Tahoma, Arial, sans-serif" font-size="74" font-weight="900" fill="#14B8A6">ماركت</text>
    <text x="360" y="708" text-anchor="middle" font-family="Cairo, 'Segoe UI', Tahoma, Arial, sans-serif" font-size="31" font-weight="800" fill="#667085">سوق منتجات الأطفال في ليبيا</text>
  </g>
</svg>
