<svg xmlns="http://www.w3.org/2000/svg" width="512" height="512" viewBox="0 0 512 512" role="img" aria-labelledby="title desc">
  <title id="title">علامة طفلي ماركت</title>
  <desc id="desc">مونوجرام عربي احترافي مستوحى من حرفي ط وم لمنصة طفلي ماركت</desc>
  <defs>
    <linearGradient id="brandBg" x1="66" y1="54" x2="448" y2="458" gradientUnits="userSpaceOnUse">
      <stop offset="0" stop-color="#A855F7"/>
      <stop offset="0.52" stop-color="#38BDF8"/>
      <stop offset="1" stop-color="#14B8A6"/>
    </linearGradient>
    <linearGradient id="softLight" x1="120" y1="88" x2="402" y2="414" gradientUnits="userSpaceOnUse">
      <stop offset="0" stop-color="#FFFFFF" stop-opacity="0.36"/>
      <stop offset="1" stop-color="#FFFFFF" stop-opacity="0.08"/>
    </linearGradient>
    <filter id="shadow" x="-20%" y="-20%" width="140%" height="150%" color-interpolation-filters="sRGB">
      <feDropShadow dx="0" dy="24" stdDeviation="28" flood-color="#1F2937" flood-opacity="0.18"/>
    </filter>
  </defs>
  <rect width="512" height="512" fill="#FFFFFF"/>
  <rect x="48" y="48" width="416" height="416" rx="118" fill="url(#brandBg)"/>
  <path d="M104 131c68-63 184-75 265-27 60 36 86 97 68 169-24 90-126 172-234 164-99-7-161-82-161-168 0-55 21-102 62-138Z" fill="url(#softLight)"/>
  <g filter="url(#shadow)">
    <circle cx="256" cy="256" r="152" fill="#FFFFFF" opacity="0.14"/>
    <text x="256" y="306" text-anchor="middle" direction="rtl" unicode-bidi="plaintext" font-family="Cairo, 'Segoe UI', Tahoma, Arial, sans-serif" font-size="178" font-weight="900" fill="#FFFFFF">طم</text>
    <circle cx="156" cy="160" r="15" fill="#FFFFFF" opacity="0.88"/>
    <circle cx="198" cy="138" r="11" fill="#E6FFFB" opacity="0.92"/>
    <circle cx="234" cy="150" r="9" fill="#FFFFFF" opacity="0.72"/>
    <path d="M350 130c12-14 37-6 37 15 0 23-27 35-37 45-10-10-37-22-37-45 0-21 25-29 37-15Z" fill="#FFFFFF" opacity="0.22"/>
  </g>
</svg>
