<svg xmlns="http://www.w3.org/2000/svg" width="512" height="512" viewBox="0 0 512 512" role="img" aria-labelledby="title desc">
  <title id="title">علامة طفلي ماركت</title>
  <desc id="desc">أيقونة متجر أطفال بتدرج بنفسجي وتركوازي وسماوي</desc>
  <defs>
    <linearGradient id="markBg" x1="86" y1="64" x2="430" y2="448" gradientUnits="userSpaceOnUse">
      <stop offset="0" stop-color="#A855F7"/>
      <stop offset="0.55" stop-color="#38BDF8"/>
      <stop offset="1" stop-color="#14B8A6"/>
    </linearGradient>
    <linearGradient id="markAccent" x1="156" y1="118" x2="356" y2="384" gradientUnits="userSpaceOnUse">
      <stop offset="0" stop-color="#F3E8FF"/>
      <stop offset="1" stop-color="#E6FFFB"/>
    </linearGradient>
    <filter id="softShadow" x="-20%" y="-20%" width="140%" height="150%" color-interpolation-filters="sRGB">
      <feDropShadow dx="0" dy="22" stdDeviation="28" flood-color="#1F2937" flood-opacity="0.20"/>
    </filter>
  </defs>
  <rect x="40" y="40" width="432" height="432" rx="118" fill="url(#markBg)"/>
  <path d="M100 111c67-58 181-71 262-24 58 34 83 91 65 157-22 82-119 158-222 152-95-5-157-75-158-157 0-51 17-94 53-128Z" fill="#fff" opacity="0.14"/>
  <g filter="url(#softShadow)">
    <path d="M142 202c4-26 20-40 47-40h134c27 0 43 14 47 40l28 172c5 34-16 60-50 60H164c-34 0-55-26-50-60l28-172Z" fill="#fff"/>
    <path d="M194 178c0-47 29-78 62-78s62 31 62 78" fill="none" stroke="#F3E8FF" stroke-width="24" stroke-linecap="round"/>
    <path d="M188 230c38 28 96 31 137 0" fill="none" stroke="#14B8A6" stroke-width="18" stroke-linecap="round"/>
    <circle cx="209" cy="270" r="14" fill="#A855F7"/>
    <circle cx="303" cy="270" r="14" fill="#38BDF8"/>
    <path d="M256 317c20-24 59-12 59 22 0 38-43 57-59 72-16-15-59-34-59-72 0-34 39-46 59-22Z" fill="url(#markAccent)" stroke="#14B8A6" stroke-width="10" stroke-linejoin="round"/>
  </g>
  <path d="M393 127c13-15 40-7 40 16 0 26-29 39-40 49-11-10-40-23-40-49 0-23 27-31 40-16Z" fill="#fff" opacity="0.88"/>
</svg>
